<mxfile host="app.diagrams.net" agent="Mozilla/5.0 (Windows NT 10.0; Win64; x64) AppleWebKit/537.36 (KHTML, like Gecko) Chrome/134.0.0.0 Safari/537.36" version="26.1.1">
  <diagram name="Page-1" id="90a13364-a465-7bf4-72fc-28e22215d7a0">
    <mxGraphModel dx="756" dy="469" grid="1" gridSize="10" guides="1" tooltips="1" connect="1" arrows="1" fold="1" page="1" pageScale="1.5" pageWidth="1169" pageHeight="826" background="none" math="0" shadow="0">
      <root>
        <mxCell id="0" style=";html=1;" />
        <mxCell id="1" style=";html=1;" parent="0" />
        <mxCell id="UfF8zlUCtcGY6HyteDeG-1" value="&lt;div&gt;Client (Postman)&lt;/div&gt;" style="rounded=1;whiteSpace=wrap;html=1;" vertex="1" parent="1">
          <mxGeometry x="150" y="270" width="120" height="60" as="geometry" />
        </mxCell>
        <mxCell id="UfF8zlUCtcGY6HyteDeG-2" value="" style="endArrow=classic;html=1;rounded=0;exitX=1;exitY=0.5;exitDx=0;exitDy=0;entryX=0;entryY=0.5;entryDx=0;entryDy=0;" edge="1" parent="1" source="UfF8zlUCtcGY6HyteDeG-1" target="UfF8zlUCtcGY6HyteDeG-9">
          <mxGeometry width="50" height="50" relative="1" as="geometry">
            <mxPoint x="470" y="590" as="sourcePoint" />
            <mxPoint x="410" y="450" as="targetPoint" />
          </mxGeometry>
        </mxCell>
        <mxCell id="UfF8zlUCtcGY6HyteDeG-3" value="&lt;div&gt;Express API&lt;/div&gt;" style="rounded=1;whiteSpace=wrap;html=1;" vertex="1" parent="1">
          <mxGeometry x="410" y="390" width="180" height="115" as="geometry" />
        </mxCell>
        <mxCell id="UfF8zlUCtcGY6HyteDeG-4" value="&lt;div&gt;POST {&quot;value&quot;: 23.5}&lt;/div&gt;" style="text;whiteSpace=wrap;html=1;" vertex="1" parent="1">
          <mxGeometry x="290" y="410" width="90" height="40" as="geometry" />
        </mxCell>
        <mxCell id="UfF8zlUCtcGY6HyteDeG-5" value="&lt;div&gt;In-Memory Storage (Array)&lt;/div&gt;" style="rounded=1;whiteSpace=wrap;html=1;" vertex="1" parent="1">
          <mxGeometry x="440" y="580" width="120" height="60" as="geometry" />
        </mxCell>
        <mxCell id="UfF8zlUCtcGY6HyteDeG-6" value="" style="endArrow=classic;html=1;rounded=0;exitX=0.5;exitY=1;exitDx=0;exitDy=0;entryX=0.5;entryY=0;entryDx=0;entryDy=0;" edge="1" parent="1" source="UfF8zlUCtcGY6HyteDeG-9" target="UfF8zlUCtcGY6HyteDeG-5">
          <mxGeometry width="50" height="50" relative="1" as="geometry">
            <mxPoint x="590" y="447" as="sourcePoint" />
            <mxPoint x="660" y="447" as="targetPoint" />
          </mxGeometry>
        </mxCell>
        <mxCell id="UfF8zlUCtcGY6HyteDeG-9" value="&lt;div&gt;POST /temperature&lt;/div&gt;" style="rounded=1;whiteSpace=wrap;html=1;" vertex="1" parent="1">
          <mxGeometry x="410" y="455" width="180" height="50" as="geometry" />
        </mxCell>
        <mxCell id="UfF8zlUCtcGY6HyteDeG-10" value="&lt;div&gt;GET /temperature&lt;/div&gt;" style="rounded=1;whiteSpace=wrap;html=1;" vertex="1" parent="1">
          <mxGeometry x="410" y="390" width="180" height="45" as="geometry" />
        </mxCell>
        <mxCell id="UfF8zlUCtcGY6HyteDeG-11" value="&lt;div&gt;Frontend (HTML + JS)&lt;/div&gt;" style="rounded=1;whiteSpace=wrap;html=1;" vertex="1" parent="1">
          <mxGeometry x="710" y="270" width="120" height="60" as="geometry" />
        </mxCell>
        <mxCell id="UfF8zlUCtcGY6HyteDeG-13" value="&lt;div&gt;Store Data&lt;/div&gt;" style="text;whiteSpace=wrap;html=1;" vertex="1" parent="1">
          <mxGeometry x="500" y="530" width="90" height="40" as="geometry" />
        </mxCell>
        <mxCell id="UfF8zlUCtcGY6HyteDeG-14" value="&lt;div&gt;GET Request&lt;/div&gt;" style="text;whiteSpace=wrap;html=1;" vertex="1" parent="1">
          <mxGeometry x="540" y="280" width="90" height="40" as="geometry" />
        </mxCell>
        <mxCell id="UfF8zlUCtcGY6HyteDeG-16" value="" style="endArrow=classic;html=1;rounded=0;exitX=-0.01;exitY=0.604;exitDx=0;exitDy=0;entryX=0.5;entryY=0;entryDx=0;entryDy=0;exitPerimeter=0;" edge="1" parent="1" source="UfF8zlUCtcGY6HyteDeG-11" target="UfF8zlUCtcGY6HyteDeG-10">
          <mxGeometry width="50" height="50" relative="1" as="geometry">
            <mxPoint x="280" y="310" as="sourcePoint" />
            <mxPoint x="420" y="490" as="targetPoint" />
            <Array as="points">
              <mxPoint x="500" y="306" />
            </Array>
          </mxGeometry>
        </mxCell>
        <mxCell id="UfF8zlUCtcGY6HyteDeG-17" value="" style="endArrow=classic;html=1;rounded=0;exitX=1;exitY=0.5;exitDx=0;exitDy=0;entryX=1;entryY=0.5;entryDx=0;entryDy=0;" edge="1" parent="1" source="UfF8zlUCtcGY6HyteDeG-5" target="UfF8zlUCtcGY6HyteDeG-10">
          <mxGeometry width="50" height="50" relative="1" as="geometry">
            <mxPoint x="719" y="316" as="sourcePoint" />
            <mxPoint x="600" y="423" as="targetPoint" />
            <Array as="points">
              <mxPoint x="680" y="610" />
              <mxPoint x="680" y="413" />
            </Array>
          </mxGeometry>
        </mxCell>
        <mxCell id="UfF8zlUCtcGY6HyteDeG-18" value="&lt;div&gt;Fetch Data&lt;/div&gt;" style="text;whiteSpace=wrap;html=1;" vertex="1" parent="1">
          <mxGeometry x="680" y="505" width="90" height="40" as="geometry" />
        </mxCell>
        <mxCell id="UfF8zlUCtcGY6HyteDeG-19" value="" style="endArrow=classic;html=1;rounded=0;exitX=0.75;exitY=0;exitDx=0;exitDy=0;entryX=0.5;entryY=1;entryDx=0;entryDy=0;" edge="1" parent="1" source="UfF8zlUCtcGY6HyteDeG-10" target="UfF8zlUCtcGY6HyteDeG-11">
          <mxGeometry width="50" height="50" relative="1" as="geometry">
            <mxPoint x="719" y="316" as="sourcePoint" />
            <mxPoint x="510" y="400" as="targetPoint" />
            <Array as="points">
              <mxPoint x="545" y="360" />
              <mxPoint x="770" y="360" />
            </Array>
          </mxGeometry>
        </mxCell>
        <mxCell id="UfF8zlUCtcGY6HyteDeG-20" value="&lt;div&gt;Return Data&amp;nbsp;&lt;/div&gt;" style="text;whiteSpace=wrap;html=1;" vertex="1" parent="1">
          <mxGeometry x="590" y="340" width="150" height="40" as="geometry" />
        </mxCell>
      </root>
    </mxGraphModel>
  </diagram>
</mxfile>
